<svg width="253" height="55" viewBox="0 0 253 55" fill="none" xmlns="http://www.w3.org/2000/svg">
<ellipse cx="246.237" cy="47.191" rx="6.76337" ry="6.81368" fill="#FF9100" style="mix-blend-mode:darken"/>
<path d="M0 17.3396C0 12.9213 3.58172 9.33962 8 9.33962H22.0594C26.4777 9.33962 30.0594 12.9213 30.0594 17.3396V31.6226C30.0594 36.0409 26.4777 39.6226 22.0594 39.6226H8C3.58173 39.6226 0 36.0409 0 31.6226V17.3396Z" fill="#FF9100"/>
<path d="M49.1932 26.216L41.9452 53H32.8732L28.6492 35.624L24.2812 53H15.2572L7.9612 26.216H16.1692L19.9612 45.368L24.4732 26.216H33.1612L37.7212 45.272L41.4652 26.216H49.1932ZM60.8193 53.384C58.4833 53.384 56.4033 52.984 54.5793 52.184C52.7553 51.384 51.3153 50.296 50.2593 48.92C49.2033 47.512 48.6113 45.944 48.4833 44.216H56.5953C56.6913 45.144 57.1233 45.896 57.8913 46.472C58.6593 47.048 59.6033 47.336 60.7233 47.336C61.7473 47.336 62.5313 47.144 63.0753 46.76C63.6513 46.344 63.9393 45.816 63.9393 45.176C63.9393 44.408 63.5393 43.848 62.7393 43.496C61.9393 43.112 60.6433 42.696 58.8513 42.248C56.9313 41.8 55.3313 41.336 54.0513 40.856C52.7713 40.344 51.6673 39.56 50.7393 38.504C49.8113 37.416 49.3473 35.96 49.3473 34.136C49.3473 32.6 49.7633 31.208 50.5953 29.96C51.4593 28.68 52.7073 27.672 54.3393 26.936C56.0033 26.2 57.9713 25.832 60.2433 25.832C63.6033 25.832 66.2433 26.664 68.1633 28.328C70.1153 29.992 71.2353 32.2 71.5233 34.952H63.9393C63.8113 34.024 63.3953 33.288 62.6913 32.744C62.0193 32.2 61.1233 31.928 60.0033 31.928C59.0433 31.928 58.3073 32.12 57.7953 32.504C57.2833 32.856 57.0273 33.352 57.0273 33.992C57.0273 34.76 57.4273 35.336 58.2273 35.72C59.0593 36.104 60.3393 36.488 62.0673 36.872C64.0513 37.384 65.6673 37.896 66.9153 38.408C68.1633 38.888 69.2513 39.688 70.1793 40.808C71.1393 41.896 71.6353 43.368 71.6673 45.224C71.6673 46.792 71.2193 48.2 70.3233 49.448C69.4593 50.664 68.1953 51.624 66.5313 52.328C64.8993 53.032 62.9953 53.384 60.8193 53.384ZM72.6569 39.56C72.6569 36.808 73.1689 34.392 74.1929 32.312C75.2489 30.232 76.6729 28.632 78.4649 27.512C80.2569 26.392 82.2569 25.832 84.4649 25.832C86.3529 25.832 88.0009 26.216 89.4089 26.984C90.8489 27.752 91.9529 28.76 92.7209 30.008V26.216H100.929V53H92.7209V49.208C91.9209 50.456 90.8009 51.464 89.3609 52.232C87.9529 53 86.3049 53.384 84.4169 53.384C82.2409 53.384 80.2569 52.824 78.4649 51.704C76.6729 50.552 75.2489 48.936 74.1929 46.856C73.1689 44.744 72.6569 42.312 72.6569 39.56ZM92.7209 39.608C92.7209 37.56 92.1449 35.944 90.9929 34.76C89.8729 33.576 88.4969 32.984 86.8649 32.984C85.2329 32.984 83.8409 33.576 82.6889 34.76C81.5689 35.912 81.0089 37.512 81.0089 39.56C81.0089 41.608 81.5689 43.24 82.6889 44.456C83.8409 45.64 85.2329 46.232 86.8649 46.232C88.4969 46.232 89.8729 45.64 90.9929 44.456C92.1449 43.272 92.7209 41.656 92.7209 39.608ZM115.363 53.384C113.027 53.384 110.947 52.984 109.123 52.184C107.299 51.384 105.859 50.296 104.803 48.92C103.747 47.512 103.155 45.944 103.027 44.216H111.139C111.235 45.144 111.667 45.896 112.435 46.472C113.203 47.048 114.147 47.336 115.267 47.336C116.291 47.336 117.075 47.144 117.619 46.76C118.195 46.344 118.483 45.816 118.483 45.176C118.483 44.408 118.083 43.848 117.283 43.496C116.483 43.112 115.187 42.696 113.395 42.248C111.475 41.8 109.875 41.336 108.595 40.856C107.315 40.344 106.211 39.56 105.283 38.504C104.355 37.416 103.891 35.96 103.891 34.136C103.891 32.6 104.307 31.208 105.139 29.96C106.003 28.68 107.251 27.672 108.883 26.936C110.547 26.2 112.515 25.832 114.787 25.832C118.147 25.832 120.787 26.664 122.707 28.328C124.659 29.992 125.779 32.2 126.067 34.952H118.483C118.355 34.024 117.939 33.288 117.235 32.744C116.563 32.2 115.667 31.928 114.547 31.928C113.587 31.928 112.851 32.12 112.339 32.504C111.827 32.856 111.571 33.352 111.571 33.992C111.571 34.76 111.971 35.336 112.771 35.72C113.603 36.104 114.883 36.488 116.611 36.872C118.595 37.384 120.211 37.896 121.459 38.408C122.707 38.888 123.795 39.688 124.723 40.808C125.683 41.896 126.179 43.368 126.211 45.224C126.211 46.792 125.763 48.2 124.867 49.448C124.003 50.664 122.739 51.624 121.075 52.328C119.443 53.032 117.539 53.384 115.363 53.384ZM141.025 53.384C138.401 53.384 136.033 52.824 133.921 51.704C131.841 50.584 130.193 48.984 128.977 46.904C127.793 44.824 127.201 42.392 127.201 39.608C127.201 36.856 127.809 34.44 129.025 32.36C130.241 30.248 131.905 28.632 134.017 27.512C136.129 26.392 138.497 25.832 141.121 25.832C143.745 25.832 146.113 26.392 148.225 27.512C150.337 28.632 152.001 30.248 153.217 32.36C154.433 34.44 155.041 36.856 155.041 39.608C155.041 42.36 154.417 44.792 153.169 46.904C151.953 48.984 150.273 50.584 148.129 51.704C146.017 52.824 143.649 53.384 141.025 53.384ZM141.025 46.28C142.593 46.28 143.921 45.704 145.009 44.552C146.129 43.4 146.689 41.752 146.689 39.608C146.689 37.464 146.145 35.816 145.057 34.664C144.001 33.512 142.689 32.936 141.121 32.936C139.521 32.936 138.193 33.512 137.137 34.664C136.081 35.784 135.553 37.432 135.553 39.608C135.553 41.752 136.065 43.4 137.089 44.552C138.145 45.704 139.457 46.28 141.025 46.28ZM183.443 26.216V53H175.235V49.352C174.403 50.536 173.267 51.496 171.827 52.232C170.419 52.936 168.851 53.288 167.123 53.288C165.075 53.288 163.267 52.84 161.699 51.944C160.131 51.016 158.915 49.688 158.051 47.96C157.187 46.232 156.755 44.2 156.755 41.864V26.216H164.915V40.76C164.915 42.552 165.379 43.944 166.307 44.936C167.235 45.928 168.483 46.424 170.051 46.424C171.651 46.424 172.915 45.928 173.843 44.936C174.771 43.944 175.235 42.552 175.235 40.76V26.216H183.443ZM194.619 46.232H206.235V53H185.451V46.472L196.587 32.984H185.547V26.216H205.995V32.744L194.619 46.232ZM206.719 39.56C206.719 36.808 207.231 34.392 208.255 32.312C209.311 30.232 210.735 28.632 212.527 27.512C214.319 26.392 216.319 25.832 218.527 25.832C220.415 25.832 222.063 26.216 223.471 26.984C224.911 27.752 226.015 28.76 226.783 30.008V26.216H234.991V53H226.783V49.208C225.983 50.456 224.863 51.464 223.423 52.232C222.015 53 220.367 53.384 218.479 53.384C216.303 53.384 214.319 52.824 212.527 51.704C210.735 50.552 209.311 48.936 208.255 46.856C207.231 44.744 206.719 42.312 206.719 39.56ZM226.783 39.608C226.783 37.56 226.207 35.944 225.055 34.76C223.935 33.576 222.559 32.984 220.927 32.984C219.295 32.984 217.903 33.576 216.751 34.76C215.631 35.912 215.071 37.512 215.071 39.56C215.071 41.608 215.631 43.24 216.751 44.456C217.903 45.64 219.295 46.232 220.927 46.232C222.559 46.232 223.935 45.64 225.055 44.456C226.207 43.272 226.783 41.656 226.783 39.608Z" fill="#0E0E0E"/>
</svg>
